<svg viewBox="0 0 560 520" width="560" height="520" xmlns="http://www.w3.org/2000/svg" role="img" aria-label="Limites municipais"><g fill="#C9CDD2" stroke="#FFFFFF" stroke-width="0.35"><path d="M354.9,200.4L357.5,203.0L358.9,207.1L361.4,207.9L366.0,215.8L371.3,220.0L373.2,225.6L376.1,228.0L377.1,230.4L376.7,233.0L378.8,237.2L385.2,241.7L389.9,247.6L392.1,248.2L394.1,252.8L395.5,254.4L399.3,256.7L401.0,259.7L404.2,262.0L405.6,263.9L408.9,266.2L414.9,272.6L417.9,274.7L425.8,278.9L426.1,273.0L422.8,268.2L419.2,259.4L417.3,257.3L416.6,255.0L414.9,253.9L412.3,249.5L409.2,246.6L408.4,244.9L404.9,242.1L401.8,236.6L401.0,233.8L403.2,229.8L401.6,226.8L401.3,223.1L403.4,221.6L402.2,217.5L401.6,209.6L400.5,207.5L397.9,206.5L402.5,202.3L407.0,201.8L409.2,200.8L410.2,197.8L410.8,193.9L413.2,190.1L418.3,188.0L415.7,183.7L414.8,179.2L412.4,176.6L411.6,174.0L408.6,174.5L406.3,179.4L402.6,183.8L399.2,182.1L392.6,182.8L389.5,179.9L384.4,177.4L382.0,175.1L376.8,174.6L377.1,177.3L374.0,177.0L361.4,179.9L360.2,176.5L357.7,181.1L355.9,181.7L350.8,186.3L351.4,188.9L350.4,193.1L352.1,194.4L352.7,196.5L354.9,200.4Z"/><path d="M356.3,72.5L354.3,71.9L352.1,75.5L343.9,73.7L342.2,71.5L339.8,71.3L337.0,73.5L334.1,72.7L331.6,73.1L326.3,67.7L323.3,66.5L319.7,67.0L314.3,69.7L313.1,71.6L311.1,77.7L309.2,80.3L302.9,79.5L304.8,81.0L307.0,84.4L307.2,91.0L307.8,93.3L307.2,96.6L310.4,98.5L310.4,102.6L311.2,104.9L311.1,109.9L313.6,108.9L317.8,111.8L321.2,110.4L327.2,105.8L331.1,107.5L332.4,105.4L335.8,104.9L340.7,105.5L344.5,104.2L350.0,101.6L352.5,101.8L354.3,100.4L353.3,98.1L354.5,96.4L352.5,92.9L354.1,91.2L357.2,90.2L360.1,91.4L361.3,90.1L358.3,87.9L359.4,86.9L362.3,87.9L368.6,82.1L367.6,76.7L367.4,73.5L363.8,72.7L357.9,73.7L356.3,72.5Z"/><path d="M220.7,436.4L225.8,445.7L226.9,448.6L233.0,451.5L238.7,455.5L239.3,457.1L240.0,459.2L243.8,463.5L248.4,465.5L251.7,468.6L255.0,470.4L258.9,469.1L262.2,468.9L259.6,463.5L257.5,461.4L260.5,457.9L260.3,455.8L262.1,451.8L264.8,450.8L269.3,450.4L271.5,452.1L273.5,449.5L272.3,445.1L274.2,441.6L277.1,441.0L281.4,438.1L285.0,433.5L281.6,429.9L281.0,428.1L277.6,427.6L274.6,424.4L272.2,423.9L270.6,422.1L267.3,421.9L265.2,422.0L262.2,420.8L259.8,422.0L255.9,422.4L254.9,424.4L251.2,425.6L250.0,423.3L247.5,424.3L244.8,424.1L239.6,425.7L231.1,426.9L229.9,428.7L227.1,429.1L224.4,431.4L221.7,432.6L220.7,436.4Z"/><path d="M177.2,270.5L180.2,270.5L182.3,273.0L187.0,274.5L190.2,273.4L193.2,269.6L193.2,268.1L200.3,270.2L201.5,272.7L201.2,274.7L203.7,279.1L203.8,281.3L207.0,283.5L210.6,286.9L215.2,286.7L217.2,288.7L221.6,291.0L225.5,289.6L229.1,290.0L226.7,286.7L223.3,279.7L221.7,275.6L219.6,274.6L218.7,271.6L214.6,268.6L214.5,266.0L212.8,264.5L210.6,259.2L211.4,253.0L210.5,252.2L209.6,252.8L206.5,250.1L199.5,250.8L196.5,250.2L194.1,248.6L176.1,245.7L171.1,246.5L172.7,248.0L173.9,251.5L173.6,254.8L174.3,259.0L172.8,259.9L173.1,263.7L174.3,267.0L177.2,270.5Z"/><path d="M373.3,356.7L375.6,359.4L376.2,363.9L376.0,368.7L378.1,374.0L380.1,377.6L380.5,380.1L382.4,382.8L384.1,388.5L386.8,392.3L393.0,389.9L396.8,385.5L403.7,381.0L406.4,380.2L410.9,376.9L417.5,374.0L419.7,371.7L422.9,368.7L423.9,366.7L425.3,363.4L424.7,361.0L420.1,361.0L416.9,359.0L409.5,352.6L407.8,346.5L391.9,350.0L385.9,348.5L381.4,348.3L378.5,347.0L373.3,356.7Z"/><path d="M316.6,369.8L317.9,369.1L321.1,370.2L323.0,372.6L327.8,373.5L331.3,375.5L337.6,375.0L342.6,372.2L344.0,372.5L343.5,369.1L339.0,366.4L337.4,361.4L332.9,357.5L330.4,353.0L323.3,350.2L322.3,351.3L318.2,352.2L314.8,351.2L310.0,352.3L308.1,354.7L310.2,357.4L310.7,364.5L316.9,367.1L316.6,369.8Z"/><path d="M159.8,371.5L161.7,373.9L166.2,375.5L168.7,378.2L173.8,379.0L178.7,378.3L182.3,379.5L187.2,378.5L193.4,379.0L196.0,385.1L198.5,385.9L199.7,383.2L199.0,381.6L199.9,378.7L202.3,376.2L202.1,374.9L203.6,371.5L206.3,367.7L203.5,368.0L202.0,366.7L198.7,367.1L196.3,369.3L194.0,368.6L191.1,369.2L186.9,365.4L184.8,365.6L181.9,362.9L179.4,366.8L176.5,367.1L169.4,366.1L169.3,370.9L163.3,370.2L162.6,371.8L159.8,371.5Z"/><path d="M514.7,200.9L512.5,202.3L508.8,203.0L506.2,206.0L503.6,205.4L501.3,206.0L498.6,204.9L495.4,205.1L491.4,207.2L488.2,210.9L485.2,212.9L479.9,213.4L474.2,214.6L471.8,216.6L471.0,219.1L474.9,223.1L479.4,229.3L483.4,233.0L487.0,234.3L489.1,236.6L492.7,238.6L494.0,241.2L497.2,239.2L506.2,237.6L509.7,235.8L512.3,233.6L515.5,225.3L516.9,222.6L516.9,221.8L515.7,219.2L516.6,215.5L515.5,212.9L517.0,209.1L515.7,206.5L515.3,201.8L514.7,200.9Z"/><path d="M176.1,245.7L194.1,248.6L196.5,250.2L199.5,250.8L206.5,250.1L209.6,252.8L210.5,252.2L212.8,252.0L215.9,248.3L217.1,249.0L219.6,247.8L220.0,243.9L219.0,239.6L219.5,237.8L215.1,235.8L214.8,233.2L217.2,226.5L221.3,226.2L223.2,228.3L226.7,227.2L233.3,231.9L236.9,228.1L240.6,226.1L244.1,226.8L245.4,223.6L243.3,219.1L243.2,217.2L240.4,214.8L236.3,215.4L234.8,214.3L231.6,215.8L228.1,214.3L229.0,212.1L227.7,210.4L227.1,207.2L224.4,205.1L223.3,201.6L226.5,198.7L228.1,193.9L229.3,192.4L230.5,187.7L231.9,186.2L233.6,181.6L234.6,179.8L236.1,174.2L238.8,173.2L242.2,170.8L242.9,168.3L240.5,169.0L238.3,167.7L236.1,164.7L233.0,162.4L229.3,162.8L228.4,161.7L221.8,163.0L218.6,160.0L220.2,144.4L223.0,114.6L214.4,140.1L205.0,148.5L202.7,151.0L200.5,155.9L198.6,158.2L196.9,162.7L194.7,164.8L194.9,167.8L193.9,169.5L190.2,172.4L186.3,177.6L184.8,177.7L184.7,164.3L144.1,164.2L141.5,181.1L126.0,187.7L125.0,188.7L121.3,188.2L116.4,188.7L116.6,191.7L118.8,193.6L122.8,193.2L124.4,195.8L125.6,195.6L127.7,199.8L130.5,201.3L132.3,200.0L134.9,200.2L136.3,199.1L139.5,200.9L140.7,203.9L144.3,202.6L150.4,202.9L152.6,205.4L155.6,206.7L159.5,210.6L161.3,210.6L163.6,214.2L165.5,214.9L166.3,218.5L166.2,223.3L168.5,228.2L166.9,229.8L167.9,233.6L167.7,236.4L170.1,238.8L172.1,239.4L175.8,242.9L176.1,245.7Z"/><path d="M208.7,408.0L208.3,412.3L206.3,415.0L205.2,419.4L206.2,421.9L207.3,429.3L207.0,431.8L208.9,433.3L209.9,438.4L213.5,441.1L214.8,444.1L213.7,447.1L215.0,447.0L216.8,444.2L216.6,441.6L217.6,439.1L220.7,436.4L221.7,432.6L224.4,431.4L227.1,429.1L229.9,428.7L231.1,426.9L239.6,425.7L244.8,424.1L242.6,422.3L240.9,424.3L238.7,421.7L234.1,419.0L229.2,411.2L226.2,409.1L219.0,408.3L215.6,410.3L214.6,413.1L212.8,412.1L208.7,408.0Z"/><path d="M267.5,199.6L273.0,199.8L274.1,206.9L277.6,206.4L283.8,206.4L285.8,207.9L285.8,211.7L286.5,214.4L290.2,215.6L289.2,218.1L291.7,217.4L297.1,217.8L299.2,219.0L301.5,218.8L304.2,220.4L304.5,221.8L308.8,223.1L309.8,224.2L312.9,220.8L318.0,219.3L319.7,215.7L323.4,214.9L321.9,209.6L319.0,205.9L317.3,196.0L317.0,193.4L315.1,189.7L312.2,189.7L309.7,191.7L307.8,191.5L305.1,189.2L302.5,188.2L297.4,188.8L292.6,187.2L289.9,186.9L287.7,183.9L285.2,182.9L279.7,182.3L277.2,184.7L274.6,184.4L271.3,187.0L268.2,187.1L266.2,190.1L268.0,195.3L267.5,199.6Z"/><path d="M378.5,347.0L381.4,348.3L385.9,348.5L391.9,350.0L407.8,346.5L409.5,352.6L416.9,359.0L420.1,361.0L424.7,361.0L425.3,363.4L423.9,366.7L427.5,362.0L428.8,356.5L431.8,352.5L433.6,351.5L437.5,347.4L439.4,342.2L438.2,336.9L437.0,334.9L433.0,332.3L431.0,333.2L429.4,332.2L423.6,335.1L417.3,336.4L413.6,338.1L408.1,337.7L403.8,340.0L401.0,339.0L395.4,334.8L391.1,334.1L387.5,334.6L383.5,332.3L381.6,331.1L380.7,332.0L380.9,336.3L377.9,344.3L378.5,347.0Z"/><path d="M359.5,382.4L360.7,384.3L361.0,391.1L362.3,394.2L362.7,396.9L364.5,399.5L364.9,407.4L363.6,410.2L361.1,410.7L361.5,413.1L367.3,410.9L371.0,409.9L374.8,405.1L376.3,402.9L376.1,401.1L378.4,397.7L382.4,395.7L383.4,393.7L386.8,392.3L384.1,388.5L382.4,382.8L380.5,380.1L380.1,377.6L378.1,374.0L376.0,368.7L376.2,363.9L375.6,359.4L373.3,356.7L359.5,382.4Z"/><path d="M177.1,351.0L175.3,349.4L172.8,349.0L172.3,345.0L169.3,342.8L166.1,342.9L164.1,336.1L158.6,331.8L153.6,332.7L149.8,332.0L148.0,330.5L146.8,324.8L140.7,327.1L138.7,329.2L135.9,326.0L131.9,326.5L128.9,327.6L129.5,328.8L129.8,334.1L132.2,335.7L129.4,342.6L130.2,345.2L127.5,349.0L125.4,353.0L125.1,357.7L125.9,360.8L121.5,362.3L120.5,363.4L114.5,365.2L115.6,368.4L113.5,369.2L113.7,372.9L112.7,375.1L116.3,374.5L117.0,375.9L119.6,376.8L123.6,376.0L124.0,378.2L126.5,380.0L129.1,378.9L133.2,375.7L134.8,376.9L137.2,374.3L139.3,376.9L145.8,372.5L147.6,369.1L148.2,366.3L151.4,364.3L156.7,364.3L157.9,368.7L159.8,371.5L162.6,371.8L163.3,370.2L169.3,370.9L169.4,366.1L176.5,367.1L179.4,366.8L181.9,362.9L179.8,361.2L181.0,358.1L179.8,356.6L177.1,351.0Z"/><path d="M156.9,250.4L156.0,247.1L155.7,243.3L156.5,240.1L152.4,238.2L151.4,239.3L146.4,241.6L144.9,241.2L137.4,241.3L135.9,244.7L132.7,244.5L131.0,245.5L127.2,241.3L127.7,235.1L124.2,234.1L119.6,229.1L116.2,229.3L118.3,231.7L118.2,235.3L119.6,237.5L119.5,239.5L115.6,240.1L116.9,245.3L120.0,245.4L121.4,248.9L121.2,250.8L122.4,253.8L124.6,257.2L124.8,261.4L123.2,264.6L124.6,267.7L124.9,270.3L126.4,272.3L124.5,277.0L125.4,279.0L136.3,279.0L137.1,276.3L142.1,272.5L141.7,270.1L144.3,268.4L144.0,266.8L147.2,263.8L149.8,262.7L149.2,260.5L154.0,258.7L155.6,255.8L156.9,250.4Z"/><path d="M169.5,307.3L169.1,304.4L167.7,302.9L169.9,301.5L168.5,299.8L167.4,294.7L168.5,292.8L171.1,292.2L168.7,286.9L172.3,283.5L170.5,280.0L174.2,277.3L175.5,273.9L173.8,272.0L177.2,270.5L174.3,267.0L173.1,263.7L172.8,259.9L168.7,261.5L167.5,262.7L164.1,261.2L163.9,259.8L159.0,254.3L156.9,250.4L155.6,255.8L154.0,258.7L149.2,260.5L149.8,262.7L147.2,263.8L144.0,266.8L144.3,268.4L141.7,270.1L142.1,272.5L137.1,276.3L136.3,279.0L125.4,279.0L124.1,282.2L125.4,285.9L125.0,290.3L126.4,292.5L125.5,295.3L127.4,298.0L129.7,303.6L130.3,308.0L128.6,310.4L129.2,312.1L128.4,315.9L130.3,319.1L139.1,317.9L142.1,318.7L146.8,317.6L149.6,318.6L155.2,318.0L158.2,316.5L162.3,316.9L163.2,314.1L167.1,311.4L167.7,307.9L169.5,307.3Z"/><path d="M374.8,265.0L380.6,268.3L382.0,271.7L381.9,273.9L383.7,277.3L385.9,278.1L387.9,280.7L392.8,283.7L402.6,291.9L404.8,294.5L409.2,297.9L410.8,300.8L412.3,301.7L413.1,304.5L415.2,307.1L418.0,312.1L419.7,313.8L424.5,316.3L426.9,319.5L431.4,321.6L435.2,324.3L435.2,325.5L438.7,327.3L439.2,328.5L443.3,327.8L444.9,323.9L446.3,323.1L450.1,324.1L452.7,322.4L454.9,319.7L456.8,314.1L459.4,311.2L460.2,306.2L458.1,301.3L457.3,300.2L453.9,300.4L450.5,297.6L450.7,296.3L447.5,293.2L443.0,289.9L439.5,288.2L435.3,285.2L433.4,285.8L429.5,283.8L425.8,278.9L417.9,274.7L414.9,272.6L408.9,266.2L405.6,263.9L404.2,262.0L401.0,259.7L399.3,256.7L395.5,254.4L390.2,259.5L384.5,262.2L380.8,262.5L377.7,264.4L374.8,265.0Z"/><path d="M252.1,384.5L251.0,389.9L248.0,394.5L246.5,394.6L245.1,397.0L243.2,397.7L242.9,400.1L241.2,401.9L241.2,404.3L244.7,406.4L247.0,406.7L249.7,408.6L252.1,412.7L254.8,414.1L262.2,420.8L265.2,422.0L267.3,421.9L266.5,418.9L266.7,413.8L268.8,409.9L272.6,408.1L270.8,406.4L269.5,402.6L273.2,403.8L276.6,403.8L280.7,401.9L286.2,402.9L285.0,400.7L285.0,394.9L282.4,390.9L281.0,388.0L278.1,387.4L271.9,388.4L268.3,390.0L261.7,386.9L257.1,385.5L252.1,384.5Z"/><path d="M287.7,183.9L289.9,186.9L292.6,187.2L297.4,188.8L302.5,188.2L305.1,189.2L307.8,191.5L309.7,191.7L312.2,189.7L315.1,189.7L317.0,193.4L317.3,196.0L322.9,194.5L325.7,182.2L328.4,183.7L330.2,185.9L331.0,188.4L335.8,192.9L340.1,195.0L340.6,196.7L343.2,199.4L352.9,201.4L354.9,200.4L352.7,196.5L352.1,194.4L350.4,193.1L351.4,188.9L350.8,186.3L349.6,184.9L348.0,179.7L346.2,177.0L344.7,170.0L343.1,168.0L341.6,162.7L343.1,157.2L347.2,157.7L352.0,157.6L354.7,155.7L355.1,152.5L357.1,150.0L360.6,148.0L356.5,144.8L357.8,140.4L350.6,133.7L350.4,136.9L345.7,139.3L343.6,142.4L339.3,143.4L337.4,144.5L334.5,143.6L330.4,145.0L327.9,144.2L323.5,145.3L319.4,144.7L318.0,145.8L317.0,149.9L314.8,151.7L312.6,151.7L309.8,149.0L308.2,145.8L304.1,146.0L300.0,149.3L302.1,153.4L302.6,156.5L302.1,162.5L300.7,162.3L298.0,165.7L295.3,167.5L295.3,173.7L291.9,173.9L289.7,177.9L287.8,178.4L287.7,183.9Z"/><path d="M262.0,268.7L265.1,265.3L268.3,266.8L269.9,270.7L269.2,272.5L269.9,276.3L271.5,279.1L274.4,280.7L276.3,280.4L278.7,283.6L281.4,284.7L282.6,286.7L285.6,287.8L288.9,289.9L291.0,294.3L297.0,297.2L299.1,301.8L298.7,303.9L302.7,308.4L303.2,311.1L308.8,316.0L309.5,317.8L313.8,321.0L316.1,323.8L318.8,325.2L325.9,327.4L328.1,326.9L334.2,328.6L338.5,326.6L340.6,328.6L341.9,328.1L342.9,326.0L342.4,321.4L340.7,320.6L342.1,316.9L342.1,313.1L340.7,311.2L340.0,307.8L337.6,303.1L337.6,300.1L334.8,297.6L334.1,294.9L332.5,292.8L329.7,292.4L326.5,290.1L326.1,286.4L322.1,284.2L318.6,284.0L316.2,281.7L315.0,276.8L312.2,275.5L310.4,272.7L306.0,270.9L304.8,267.5L303.3,266.4L302.7,263.8L304.6,258.3L303.5,254.4L304.1,249.0L302.9,250.0L298.9,251.1L293.5,249.5L290.5,246.3L286.4,244.0L283.7,243.7L283.2,239.5L282.0,236.1L276.0,233.7L273.2,233.6L272.4,231.9L269.3,230.3L265.1,229.4L264.3,228.1L259.2,228.1L258.9,230.1L255.5,230.6L254.9,232.3L257.1,234.9L261.7,236.1L261.7,237.1L265.5,239.0L265.5,250.1L263.2,252.2L263.2,255.6L265.3,259.7L263.3,263.0L260.2,264.9L262.0,268.7Z"/><path d="M112.7,375.1L113.7,372.9L113.5,369.2L115.6,368.4L114.5,365.2L120.5,363.4L121.5,362.3L125.9,360.8L125.1,357.7L125.4,353.0L127.5,349.0L130.2,345.2L129.4,342.6L132.2,335.7L129.8,334.1L129.5,328.8L128.9,327.6L126.6,327.1L120.3,329.2L118.9,332.5L115.2,331.7L113.2,333.8L109.9,334.8L104.9,341.3L105.5,343.6L103.2,347.0L103.2,350.5L101.0,351.5L99.1,354.3L95.6,353.6L93.3,355.9L90.8,356.3L88.2,360.4L87.4,363.5L85.6,364.3L85.0,367.9L81.5,371.0L83.8,372.2L86.4,372.0L90.1,373.2L91.0,374.9L94.4,375.6L96.2,374.3L100.2,376.5L101.8,374.5L109.3,376.3L112.7,375.1Z"/><path d="M470.7,152.8L468.4,152.1L462.4,148.3L460.0,148.1L457.0,144.0L453.4,143.0L449.2,142.7L447.2,140.9L444.8,140.9L443.0,139.1L442.7,137.2L440.0,136.8L437.6,133.4L429.7,133.0L427.1,131.8L426.5,130.1L422.6,126.1L417.9,129.1L418.7,132.7L417.1,136.0L418.1,141.8L415.6,141.3L414.2,138.5L410.6,142.0L411.5,146.1L414.9,148.8L413.9,160.4L417.6,163.0L418.1,166.3L420.7,168.5L424.3,168.4L428.1,170.5L432.6,170.4L435.5,171.2L436.7,169.2L440.0,169.4L441.7,171.1L444.8,167.5L444.2,166.2L439.3,166.3L437.0,162.4L435.3,161.3L439.3,158.5L443.0,160.8L444.0,162.5L446.3,162.3L448.8,158.6L451.6,158.0L454.3,159.6L458.9,160.3L462.8,161.2L466.8,159.4L468.5,161.5L473.4,162.7L474.3,163.6L477.7,164.0L479.9,159.3L480.9,154.6L477.4,153.5L476.2,154.5L472.8,154.0L470.7,152.8Z"/><path d="M380.2,130.0L384.8,129.9L386.1,129.1L390.1,129.1L391.7,136.6L394.7,139.2L394.4,141.7L391.7,149.2L387.4,152.1L385.2,152.2L385.5,154.4L387.3,155.0L387.8,158.4L390.0,162.2L393.5,161.4L399.7,163.6L401.6,163.5L404.3,166.1L404.6,168.0L408.4,169.5L411.6,173.0L411.6,174.0L412.4,176.6L414.8,179.2L415.7,183.7L417.5,182.2L419.3,177.2L418.9,172.4L420.7,168.5L418.1,166.3L417.6,163.0L413.9,160.4L414.9,148.8L411.5,146.1L410.6,142.0L414.2,138.5L415.6,141.3L418.1,141.8L417.1,136.0L418.7,132.7L417.9,129.1L422.6,126.1L420.2,122.4L416.6,121.3L414.6,119.9L412.3,120.5L410.8,122.1L407.7,122.4L404.2,121.4L400.2,122.4L396.0,120.7L393.6,120.6L391.8,119.1L389.1,118.8L388.6,116.8L383.9,120.7L382.2,120.9L380.4,124.6L380.2,130.0Z"/><path d="M246.9,226.9L247.8,224.7L250.0,224.7L251.6,222.3L253.9,220.8L254.4,218.4L256.9,214.2L257.5,210.4L259.7,209.0L260.5,204.6L261.9,204.4L264.2,201.4L267.5,199.6L268.0,195.3L266.2,190.1L268.2,187.1L266.9,180.0L263.4,176.9L262.1,179.1L262.3,182.7L260.5,190.7L256.9,190.9L256.2,192.9L254.1,194.0L252.3,193.3L247.9,194.2L246.6,191.9L247.2,188.3L244.0,189.4L239.9,188.2L238.1,186.9L233.6,181.6L231.9,186.2L230.5,187.7L229.3,192.4L228.1,193.9L226.5,198.7L223.3,201.6L224.4,205.1L227.1,207.2L227.7,210.4L229.0,212.1L228.1,214.3L231.6,215.8L234.8,214.3L236.3,215.4L240.4,214.8L243.2,217.2L243.3,219.1L245.4,223.6L244.1,226.8L246.9,226.9Z"/><path d="M213.7,447.1L212.6,452.5L216.0,456.9L215.2,459.2L212.3,464.4L215.4,464.8L221.0,462.8L221.8,465.0L229.9,466.4L231.5,470.6L236.1,458.5L239.3,457.1L238.7,455.5L233.0,451.5L226.9,448.6L225.8,445.7L220.7,436.4L217.6,439.1L216.6,441.6L216.8,444.2L215.0,447.0L213.7,447.1Z"/><path d="M116.4,188.7L121.3,188.2L125.0,188.7L126.0,187.7L141.5,181.1L144.1,164.2L184.7,164.3L184.8,177.7L186.3,177.6L190.2,172.4L193.9,169.5L194.9,167.8L194.7,164.8L196.9,162.7L198.6,158.2L200.5,155.9L202.7,151.0L205.0,148.5L214.4,140.1L223.0,114.6L229.3,90.7L240.4,47.9L232.9,43.9L232.1,42.0L229.7,40.3L227.5,40.8L222.6,38.2L220.8,38.2L217.4,35.8L215.3,36.2L210.4,31.2L210.7,29.0L209.4,27.8L206.3,27.2L205.7,25.8L201.6,26.6L198.9,24.7L190.4,22.0L185.6,19.5L182.1,18.6L181.8,15.2L180.0,13.8L174.3,14.4L170.6,15.6L168.7,17.8L166.1,17.3L160.4,22.3L158.8,21.7L156.9,23.2L152.8,24.9L149.6,22.3L146.1,24.7L138.0,25.6L137.3,24.3L134.6,23.6L132.3,25.0L130.4,29.3L127.5,29.5L127.8,31.8L126.4,36.0L124.4,39.7L122.1,39.6L117.8,43.0L118.4,46.0L116.9,48.7L113.9,51.2L112.9,54.0L111.1,54.2L109.3,56.7L101.1,57.5L98.4,60.2L95.3,60.0L92.7,61.4L87.6,62.7L85.4,65.9L83.7,63.2L81.6,63.2L80.6,61.5L75.4,58.5L74.5,54.2L70.3,52.7L71.2,49.0L69.8,46.4L68.5,40.4L66.7,39.9L65.8,41.9L63.6,42.4L63.8,47.1L66.0,51.3L68.6,53.7L68.1,56.8L70.4,59.4L67.9,60.8L76.0,76.1L77.7,82.4L82.4,87.2L85.7,89.7L78.8,90.2L64.8,137.2L68.0,137.2L68.1,142.8L69.5,145.2L68.7,146.9L63.8,146.9L49.2,179.2L40.5,198.6L58.7,213.8L55.8,218.8L54.0,217.4L51.8,217.7L50.7,219.7L47.7,220.0L45.7,223.5L42.9,223.6L41.5,226.3L39.3,226.6L40.5,230.6L38.2,232.7L39.6,235.2L41.3,233.6L43.2,236.1L42.4,238.7L44.4,243.5L47.6,244.3L49.3,248.3L47.9,252.5L49.5,256.6L48.4,259.2L51.3,261.7L50.1,264.8L52.6,265.6L55.0,263.7L57.4,266.7L57.8,269.4L53.7,269.0L52.0,272.7L56.4,272.2L58.7,274.7L57.8,276.7L54.0,279.7L56.9,280.7L58.4,283.5L60.4,282.6L60.0,279.6L61.3,277.8L60.8,275.0L63.1,273.4L66.3,272.7L67.1,269.5L68.5,267.7L71.3,267.8L72.9,266.3L73.3,263.3L75.6,260.5L80.0,260.2L86.0,256.0L83.6,254.7L84.6,249.5L85.4,249.4L87.8,245.3L88.4,241.6L94.2,237.9L93.5,236.2L95.6,235.1L95.6,230.3L98.0,228.6L99.5,230.7L102.4,232.8L104.2,232.6L107.4,235.3L110.5,234.8L112.8,235.8L114.8,235.3L118.3,231.7L116.2,229.3L117.0,225.2L115.9,223.8L116.0,219.3L114.2,216.9L111.5,216.9L116.4,188.7ZM85.0,146.4L85.5,148.0L82.5,153.1L82.2,159.4L71.5,156.3L70.8,154.2L71.9,150.7L73.3,150.4L73.8,146.7L75.1,144.3L79.3,145.5L85.0,146.4Z"/><path d="M378.5,75.4L371.7,76.0L367.4,73.5L367.6,76.7L368.6,82.1L362.3,87.9L359.4,86.9L358.3,87.9L361.3,90.1L360.1,91.4L357.2,90.2L354.1,91.2L352.5,92.9L354.5,96.4L353.3,98.1L354.3,100.4L352.5,101.8L350.0,101.6L344.5,104.2L348.8,109.8L349.8,110.2L351.8,114.3L352.0,117.1L354.3,118.1L358.5,121.8L358.1,125.9L360.3,128.3L350.6,132.8L350.6,133.7L357.8,140.4L362.1,136.8L363.8,136.5L366.7,139.9L369.8,141.2L372.2,140.4L373.8,137.2L376.0,135.9L379.2,130.8L380.2,130.0L380.4,124.6L382.2,120.9L383.9,120.7L388.6,116.8L386.5,114.2L385.9,111.6L388.7,109.5L391.3,106.2L391.6,103.8L394.1,103.3L396.8,102.6L399.4,98.9L398.3,96.5L395.3,95.2L391.8,95.5L387.7,94.2L385.7,94.4L382.4,96.3L381.8,97.9L378.5,97.4L376.6,95.4L376.0,88.7L374.6,84.5L373.8,79.0L375.0,77.2L378.2,76.7L378.5,75.4Z"/><path d="M229.3,90.7L230.9,91.4L234.1,89.4L235.5,90.0L239.0,89.6L242.4,90.6L243.6,92.9L246.7,93.7L246.0,95.5L248.6,97.6L250.5,100.9L254.1,104.3L257.1,105.1L260.0,103.4L265.9,108.1L265.5,109.1L268.0,115.1L274.9,117.8L275.5,121.0L278.2,123.8L281.0,124.8L286.8,125.1L290.3,123.3L293.7,118.0L295.3,113.6L298.5,114.3L304.7,114.5L306.2,111.2L311.1,109.9L311.2,104.9L310.4,102.6L310.4,98.5L307.2,96.6L307.8,93.3L307.2,91.0L307.0,84.4L304.8,81.0L302.9,79.5L300.6,79.9L296.2,82.7L294.1,82.4L290.6,83.5L287.6,82.7L283.0,86.5L279.8,87.9L277.5,90.9L276.5,89.9L276.5,86.5L275.6,85.6L272.8,86.3L269.7,81.8L271.1,73.6L271.3,70.5L270.5,67.0L267.1,68.7L266.2,71.1L260.5,73.2L258.0,72.7L254.1,69.2L253.6,67.0L250.3,64.6L247.8,65.2L244.9,63.9L240.7,58.7L240.8,55.7L239.2,54.7L240.6,48.0L240.4,47.9L229.3,90.7Z"/><path d="M297.7,379.4L308.8,383.9L310.3,382.0L315.6,370.3L316.6,369.8L316.9,367.1L310.7,364.5L310.2,357.4L308.1,354.7L304.0,353.1L301.0,355.3L302.8,359.2L300.3,364.4L301.3,368.4L298.1,371.3L298.5,372.5L296.3,375.4L298.9,376.5L297.7,379.4Z"/><path d="M232.7,288.3L235.8,289.7L236.2,279.7L238.7,277.2L239.6,273.0L237.9,268.2L236.1,267.3L234.9,265.0L236.3,259.3L236.0,257.5L231.5,249.5L231.5,247.9L228.0,244.7L225.2,247.3L223.8,245.0L226.0,243.3L225.9,240.6L228.4,239.2L233.3,238.7L231.6,236.3L231.7,233.5L233.3,231.9L226.7,227.2L223.2,228.3L221.3,226.2L217.2,226.5L214.8,233.2L215.1,235.8L219.5,237.8L219.0,239.6L220.0,243.9L219.6,247.8L217.1,249.0L215.9,248.3L212.8,252.0L210.5,252.2L211.4,253.0L210.6,259.2L212.8,264.5L214.5,266.0L214.6,268.6L218.7,271.6L219.6,274.6L221.7,275.6L223.3,279.7L226.7,286.7L229.1,290.0L231.9,287.0L232.7,288.3Z"/><path d="M270.8,363.3L271.1,365.2L274.8,365.2L277.8,367.8L279.9,365.0L280.2,362.5L282.1,359.9L283.2,353.8L281.0,352.2L278.0,353.1L274.6,353.1L274.7,354.4L270.8,363.3Z"/><path d="M252.1,384.5L257.1,385.5L261.7,386.9L268.3,390.0L271.9,388.4L278.1,387.4L273.6,383.7L278.7,379.5L281.1,381.2L281.8,383.5L289.4,381.2L292.4,376.9L296.3,375.4L298.5,372.5L298.1,371.3L301.3,368.4L300.3,364.4L302.8,359.2L301.0,355.3L297.7,353.8L292.3,354.8L287.8,351.6L284.8,350.9L283.2,353.8L282.1,359.9L280.2,362.5L279.9,365.0L277.8,367.8L274.8,365.2L271.1,365.2L270.8,363.3L269.3,365.5L266.7,366.6L264.9,368.5L258.3,372.9L254.9,372.3L251.1,369.4L248.6,368.7L246.9,366.0L243.6,367.2L244.0,363.8L242.7,361.0L243.1,359.0L245.4,356.8L248.1,356.0L249.0,350.5L247.4,351.3L242.8,351.8L239.0,352.9L236.7,352.5L234.5,353.3L230.4,351.8L226.3,351.0L225.6,350.1L222.2,351.0L220.4,354.0L214.8,357.4L216.4,361.0L217.0,367.3L219.8,369.1L223.5,369.0L224.0,371.0L225.9,373.0L230.1,372.2L232.9,374.7L236.1,375.8L239.7,374.5L244.5,377.4L249.2,383.1L250.7,384.0L252.1,384.5Z"/><path d="M290.5,488.0L298.2,491.4L299.7,493.9L302.7,495.9L306.2,496.0L308.8,494.4L310.9,491.7L310.9,487.4L311.4,484.5L313.0,481.4L313.1,479.0L312.4,475.6L309.4,475.6L303.9,472.8L302.4,470.9L298.1,470.2L294.5,469.5L290.6,480.2L291.3,481.5L288.7,486.2L290.5,488.0Z"/><path d="M278.1,387.4L281.0,388.0L282.4,390.9L285.1,384.3L287.5,383.6L294.8,386.5L297.7,379.4L298.9,376.5L296.3,375.4L292.4,376.9L289.4,381.2L281.8,383.5L281.1,381.2L278.7,379.5L273.6,383.7L278.1,387.4Z"/><path d="M304.1,146.0L308.2,145.8L309.8,149.0L312.6,151.7L314.8,151.7L317.0,149.9L318.0,145.8L319.4,144.7L323.5,145.3L327.9,144.2L330.4,145.0L334.5,143.6L337.4,144.5L339.3,143.4L343.6,142.4L345.7,139.3L350.4,136.9L350.6,133.7L350.6,132.8L360.3,128.3L358.1,125.9L358.5,121.8L354.3,118.1L352.0,117.1L351.8,114.3L349.8,110.2L348.8,109.8L344.5,104.2L340.7,105.5L335.8,104.9L332.4,105.4L331.1,107.5L327.2,105.8L321.2,110.4L317.8,111.8L313.6,108.9L311.1,109.9L306.2,111.2L304.7,114.5L298.5,114.3L295.3,113.6L293.7,118.0L290.3,123.3L294.2,124.5L296.6,125.8L299.1,129.5L299.2,132.6L302.3,136.1L304.1,146.0Z"/><path d="M293.3,390.2L308.8,396.7L309.2,398.7L314.6,397.4L312.7,392.6L310.0,389.9L308.7,385.5L308.8,383.9L297.7,379.4L294.8,386.5L293.3,390.2Z"/><path d="M167.7,307.9L169.3,312.5L168.4,314.1L169.7,318.0L173.1,318.9L174.9,321.2L175.9,326.0L173.9,328.5L174.6,331.9L179.7,338.0L181.9,339.4L184.2,342.8L183.9,344.9L186.5,345.5L190.0,345.0L187.0,345.0L187.6,340.1L186.0,336.3L189.3,334.1L192.6,335.3L194.3,334.5L195.7,331.2L199.5,331.5L195.3,325.9L196.2,323.9L193.8,321.9L191.0,319.3L188.2,318.4L187.6,316.4L185.4,315.9L181.8,312.9L179.5,311.9L175.0,312.1L170.1,309.1L169.5,307.3L167.7,307.9Z"/><path d="M273.2,481.2L278.3,482.4L285.1,483.5L286.0,485.8L288.7,486.2L291.3,481.5L290.6,480.2L294.5,469.5L298.1,470.2L299.5,468.2L299.5,465.8L300.7,462.0L300.4,459.8L297.4,456.5L291.5,451.8L290.1,447.3L291.3,445.8L291.3,443.0L294.1,437.1L289.1,436.2L288.0,434.1L285.2,432.8L285.0,433.5L281.4,438.1L277.1,441.0L274.2,441.6L272.3,445.1L273.5,449.5L271.5,452.1L269.3,450.4L264.8,450.8L262.1,451.8L260.3,455.8L260.5,457.9L257.5,461.4L259.6,463.5L262.2,468.9L266.5,471.3L271.4,476.1L273.2,481.2Z"/><path d="M485.2,212.9L484.3,212.4L482.8,207.6L480.1,206.1L479.2,203.6L476.2,200.9L476.0,198.6L474.0,198.1L468.0,188.2L463.8,185.0L464.9,179.1L461.8,174.7L461.8,172.5L460.4,166.7L460.1,163.5L458.9,160.3L454.3,159.6L451.6,158.0L448.8,158.6L446.3,162.3L444.0,162.5L443.0,160.8L439.3,158.5L435.3,161.3L437.0,162.4L439.3,166.3L444.2,166.2L444.8,167.5L441.7,171.1L440.0,169.4L436.7,169.2L435.5,171.2L432.6,170.4L428.1,170.5L424.3,168.4L420.7,168.5L418.9,172.4L419.3,177.2L417.5,182.2L415.7,183.7L418.3,188.0L424.1,189.6L427.3,192.7L427.7,196.4L429.8,197.9L430.3,200.3L435.9,206.4L435.6,213.4L437.0,217.1L439.0,220.0L440.4,223.6L442.1,225.1L443.8,221.9L446.7,220.6L447.9,218.8L451.9,217.3L457.1,217.5L460.3,216.2L464.8,210.5L467.0,218.1L471.0,219.1L471.8,216.6L474.2,214.6L479.9,213.4L485.2,212.9Z"/><path d="M270.8,363.3L274.7,354.4L274.6,353.1L272.2,354.5L269.7,352.5L270.5,349.3L267.5,349.9L265.5,351.6L263.1,346.1L261.1,346.5L259.9,347.5L257.8,346.0L254.8,346.0L253.3,344.8L251.0,345.7L249.0,350.5L248.1,356.0L245.4,356.8L243.1,359.0L242.7,361.0L244.0,363.8L243.6,367.2L246.9,366.0L248.6,368.7L251.1,369.4L254.9,372.3L258.3,372.9L264.9,368.5L266.7,366.6L269.3,365.5L270.8,363.3Z"/><path d="M294.1,437.1L291.3,443.0L291.3,445.8L290.1,447.3L291.5,451.8L297.4,456.5L300.4,459.8L300.7,462.0L299.5,465.8L299.5,468.2L298.1,470.2L302.4,470.9L303.9,472.8L309.4,475.6L312.4,475.6L313.1,479.0L314.4,474.7L317.4,463.3L319.2,461.5L322.3,458.8L324.9,455.0L326.9,453.3L328.2,450.6L326.5,448.1L326.2,445.5L323.7,443.6L320.1,442.0L311.4,439.5L308.8,441.8L304.4,441.9L304.6,440.4L301.3,439.2L299.1,439.3L295.0,436.4L294.1,437.1Z"/><path d="M314.6,397.4L315.2,397.2L321.9,389.6L324.7,391.5L327.1,395.1L331.6,397.4L339.0,399.4L341.9,398.2L345.8,399.2L348.6,396.8L350.9,390.7L349.4,389.7L349.0,387.3L347.3,385.3L347.6,382.3L346.2,380.6L344.9,376.1L345.6,374.9L344.0,372.5L342.6,372.2L337.6,375.0L331.3,375.5L327.8,373.5L323.0,372.6L321.1,370.2L317.9,369.1L316.6,369.8L315.6,370.3L310.3,382.0L308.8,383.9L308.7,385.5L310.0,389.9L312.7,392.6L314.6,397.4Z"/><path d="M270.8,489.2L277.2,489.8L282.1,493.1L287.1,494.4L288.0,496.4L290.0,495.7L291.9,493.2L289.7,492.5L288.5,490.7L290.5,488.0L288.7,486.2L286.0,485.8L285.1,483.5L278.3,482.4L273.2,481.2L269.1,482.5L270.8,489.2Z"/><path d="M264.3,228.1L265.1,229.4L269.3,230.3L272.4,231.9L273.2,233.6L276.0,233.7L282.0,236.1L283.2,239.5L283.7,243.7L286.4,244.0L290.5,246.3L293.5,249.5L298.9,251.1L302.9,250.0L304.1,249.0L309.0,246.9L313.2,246.1L316.4,244.2L324.0,241.8L319.6,239.4L317.2,237.5L317.6,236.0L315.9,232.8L312.4,229.1L311.9,226.4L309.8,224.2L308.8,223.1L304.5,221.8L304.2,220.4L301.5,218.8L299.2,219.0L297.1,217.8L291.7,217.4L289.2,218.1L282.8,215.9L281.6,217.2L278.0,217.3L273.2,215.9L269.1,216.9L267.1,219.1L265.5,219.0L264.3,228.1Z"/><path d="M128.9,327.6L131.9,326.5L135.9,326.0L138.7,329.2L140.7,327.1L146.8,324.8L148.0,330.5L149.8,332.0L153.6,332.7L158.6,331.8L164.1,336.1L166.1,342.9L169.3,342.8L172.3,345.0L172.8,349.0L175.3,349.4L177.1,351.0L179.2,351.5L181.2,350.3L183.2,350.8L183.6,346.9L185.8,345.8L190.0,345.0L186.5,345.5L183.9,344.9L184.2,342.8L181.9,339.4L179.7,338.0L174.6,331.9L173.9,328.5L175.9,326.0L174.9,321.2L173.1,318.9L169.7,318.0L168.4,314.1L169.3,312.5L167.7,307.9L167.1,311.4L163.2,314.1L162.3,316.9L158.2,316.5L155.2,318.0L149.6,318.6L146.8,317.6L142.1,318.7L139.1,317.9L130.3,319.1L126.0,320.2L120.6,327.3L120.3,329.2L126.6,327.1L128.9,327.6Z"/><path d="M287.8,403.2L290.5,403.7L294.7,400.3L301.3,409.2L303.8,410.1L307.8,409.9L310.4,412.6L314.8,414.6L320.5,420.1L325.2,421.1L328.3,422.7L332.2,422.9L334.9,425.4L337.3,425.6L339.4,428.6L339.8,424.2L341.8,422.9L342.5,419.8L345.3,418.2L345.9,416.4L348.2,415.1L349.5,413.0L347.6,411.6L347.6,410.0L346.0,406.2L343.5,405.9L341.8,408.1L338.0,409.5L330.8,410.6L325.6,407.4L321.5,405.9L317.7,400.4L314.6,397.4L309.2,398.7L308.8,396.7L293.3,390.2L287.8,403.2Z"/><path d="M267.3,421.9L270.6,422.1L272.2,423.9L274.6,424.4L277.6,427.6L281.0,428.1L281.6,429.9L285.0,433.5L285.2,432.8L287.6,426.9L287.8,421.3L288.7,420.4L288.1,417.2L304.9,413.4L308.1,413.9L310.4,412.6L307.8,409.9L303.8,410.1L301.3,409.2L294.7,400.3L290.5,403.7L287.8,403.2L286.2,402.9L280.7,401.9L276.6,403.8L273.2,403.8L269.5,402.6L270.8,406.4L272.6,408.1L268.8,409.9L266.7,413.8L266.5,418.9L267.3,421.9Z"/><path d="M85.0,146.4L79.3,145.5L75.1,144.3L73.8,146.7L73.3,150.4L71.9,150.7L70.8,154.2L71.5,156.3L82.2,159.4L82.5,153.1L85.5,148.0L85.0,146.4Z"/><path d="M226.2,409.1L229.2,411.2L234.1,419.0L238.7,421.7L240.9,424.3L242.6,422.3L244.8,424.1L247.5,424.3L250.0,423.3L251.2,425.6L254.9,424.4L255.9,422.4L259.8,422.0L262.2,420.8L254.8,414.1L252.1,412.7L249.7,408.6L247.0,406.7L244.7,406.4L241.2,404.3L241.2,401.9L242.9,400.1L243.2,397.7L245.1,397.0L246.5,394.6L248.0,394.5L251.0,389.9L252.1,384.5L250.7,384.0L246.8,384.9L246.0,388.0L243.6,388.9L241.6,387.7L235.2,391.7L227.1,394.9L225.3,398.7L226.2,409.1Z"/><path d="M261.1,346.5L260.0,342.8L256.7,341.3L253.8,338.4L252.4,335.1L250.6,334.4L250.5,331.6L248.0,330.7L247.8,329.0L245.8,327.4L242.7,326.6L241.3,323.3L238.1,321.4L238.5,320.1L235.6,318.7L232.5,316.4L229.9,311.9L230.9,309.8L229.7,305.1L228.4,304.4L227.9,299.2L229.2,296.7L229.2,292.9L231.7,287.8L232.7,288.3L231.9,287.0L229.1,290.0L225.5,289.6L221.6,291.0L217.2,288.7L216.2,289.9L216.7,292.5L214.6,293.4L213.2,290.4L211.7,292.4L206.9,293.9L208.4,297.0L206.3,303.6L202.7,305.2L205.1,307.7L203.3,311.6L205.3,315.7L204.1,317.8L206.1,320.5L200.9,319.9L197.5,317.9L196.5,319.8L194.3,320.1L193.8,321.9L196.2,323.9L195.3,325.9L199.5,331.5L195.7,331.2L194.3,334.5L196.7,336.7L200.7,342.8L202.0,341.1L207.0,343.4L211.6,344.0L215.7,346.5L218.9,349.3L221.6,349.1L222.2,351.0L225.6,350.1L226.3,351.0L230.4,351.8L234.5,353.3L236.7,352.5L239.0,352.9L242.8,351.8L247.4,351.3L249.0,350.5L251.0,345.7L253.3,344.8L254.8,346.0L257.8,346.0L259.9,347.5L261.1,346.5Z"/><path d="M116.2,229.3L119.6,229.1L124.2,234.1L127.7,235.1L127.2,241.3L131.0,245.5L132.7,244.5L135.9,244.7L137.4,241.3L144.9,241.2L146.4,241.6L151.4,239.3L152.4,238.2L156.5,240.1L155.7,243.3L156.0,247.1L156.9,250.4L159.0,254.3L163.9,259.8L164.1,261.2L167.5,262.7L168.7,261.5L172.8,259.9L174.3,259.0L173.6,254.8L173.9,251.5L172.7,248.0L171.1,246.5L176.1,245.7L175.8,242.9L172.1,239.4L170.1,238.8L167.7,236.4L167.9,233.6L166.9,229.8L168.5,228.2L166.2,223.3L166.3,218.5L165.5,214.9L163.6,214.2L161.3,210.6L159.5,210.6L155.6,206.7L152.6,205.4L150.4,202.9L144.3,202.6L140.7,203.9L139.5,200.9L136.3,199.1L134.9,200.2L132.3,200.0L130.5,201.3L127.7,199.8L125.6,195.6L124.4,195.8L122.8,193.2L118.8,193.6L116.6,191.7L116.4,188.7L111.5,216.9L114.2,216.9L116.0,219.3L115.9,223.8L117.0,225.2L116.2,229.3Z"/><path d="M310.9,491.7L308.8,494.4L306.2,496.0L302.7,495.9L299.7,493.9L298.2,491.4L290.5,488.0L288.5,490.7L289.7,492.5L291.9,493.2L290.0,495.7L288.0,496.4L288.8,498.3L293.0,501.9L294.9,501.6L295.8,504.6L297.4,506.2L299.9,505.3L305.2,501.2L307.2,500.4L309.7,497.9L311.1,493.5L310.9,491.7Z"/><path d="M294.1,437.1L295.0,436.4L299.1,439.3L301.3,439.2L304.6,440.4L304.4,441.9L308.8,441.8L311.4,439.5L320.1,442.0L323.7,443.6L326.2,445.5L326.5,448.1L328.2,450.6L326.9,453.3L324.9,455.0L322.3,458.8L319.2,461.5L321.1,461.8L332.4,455.5L335.6,450.1L336.6,446.7L340.8,438.8L341.0,430.1L339.4,428.6L337.3,425.6L334.9,425.4L332.2,422.9L328.3,422.7L325.2,421.1L320.5,420.1L314.8,414.6L310.4,412.6L308.1,413.9L304.9,413.4L288.1,417.2L288.7,420.4L287.8,421.3L287.6,426.9L285.2,432.8L288.0,434.1L289.1,436.2L294.1,437.1Z"/><path d="M217.2,288.7L215.2,286.7L210.6,286.9L207.0,283.5L203.8,281.3L203.7,279.1L201.2,274.7L201.5,272.7L200.3,270.2L193.2,268.1L193.2,269.6L190.2,273.4L187.0,274.5L182.3,273.0L180.2,270.5L177.2,270.5L173.8,272.0L175.5,273.9L174.2,277.3L170.5,280.0L172.3,283.5L168.7,286.9L171.1,292.2L168.5,292.8L167.4,294.7L168.5,299.8L169.9,301.5L167.7,302.9L169.1,304.4L169.5,307.3L170.1,309.1L175.0,312.1L179.5,311.9L181.8,312.9L185.4,315.9L187.6,316.4L188.2,318.4L191.0,319.3L193.8,321.9L194.3,320.1L196.5,319.8L197.5,317.9L200.9,319.9L206.1,320.5L204.1,317.8L205.3,315.7L203.3,311.6L205.1,307.7L202.7,305.2L206.3,303.6L208.4,297.0L206.9,293.9L211.7,292.4L213.2,290.4L214.6,293.4L216.7,292.5L216.2,289.9L217.2,288.7Z"/><path d="M269.7,312.5L270.5,316.4L269.2,317.8L271.9,320.4L270.4,322.2L270.7,324.1L273.1,326.1L276.4,322.1L278.8,322.9L283.4,325.8L284.0,327.6L287.3,329.9L290.9,325.8L294.2,324.1L294.0,327.1L292.8,328.4L294.1,331.1L298.7,335.6L301.5,336.3L302.3,338.4L309.2,340.9L310.4,340.3L316.0,343.1L319.0,345.4L319.5,347.8L323.3,350.2L330.4,353.0L330.5,350.6L333.3,346.1L334.1,343.5L334.4,339.3L333.7,336.0L334.6,334.9L334.3,331.6L341.5,330.9L342.6,329.3L341.9,328.1L340.6,328.6L338.5,326.6L334.2,328.6L328.1,326.9L325.9,327.4L318.8,325.2L316.1,323.8L313.8,321.0L309.5,317.8L308.8,316.0L303.2,311.1L302.7,308.4L298.7,303.9L299.1,301.8L297.0,297.2L291.0,294.3L288.9,289.9L285.6,287.8L282.6,286.7L282.5,287.8L284.3,295.9L281.5,296.3L279.2,297.7L281.5,300.7L281.1,302.4L278.2,304.2L273.5,308.8L271.6,308.9L271.0,311.8L269.7,312.5Z"/><path d="M381.6,331.1L379.6,330.7L373.9,328.3L371.1,329.6L369.4,327.9L367.8,329.5L365.5,328.8L362.0,329.8L356.5,327.2L354.1,326.8L346.6,330.5L344.0,330.5L342.6,329.3L341.5,330.9L334.3,331.6L334.6,334.9L333.7,336.0L334.4,339.3L334.1,343.5L333.3,346.1L330.5,350.6L330.4,353.0L332.9,357.5L337.4,361.4L339.0,366.4L343.5,369.1L344.0,372.5L345.6,374.9L344.9,376.1L346.2,380.6L347.6,382.3L347.3,385.3L349.0,387.3L349.4,389.7L350.9,390.7L348.6,396.8L345.8,399.2L349.9,400.3L359.5,382.4L373.3,356.7L378.5,347.0L377.9,344.3L380.9,336.3L380.7,332.0L381.6,331.1Z"/><path d="M314.6,397.4L317.7,400.4L321.5,405.9L325.6,407.4L330.8,410.6L338.0,409.5L341.8,408.1L343.5,405.9L346.0,406.2L349.0,403.7L348.2,402.3L349.9,400.3L345.8,399.2L341.9,398.2L339.0,399.4L331.6,397.4L327.1,395.1L324.7,391.5L321.9,389.6L315.2,397.2L314.6,397.4Z"/><path d="M411.6,174.0L411.6,173.0L408.4,169.5L404.6,168.0L404.3,166.1L401.6,163.5L399.7,163.6L393.5,161.4L390.0,162.2L387.8,158.4L387.3,155.0L385.5,154.4L385.2,152.2L387.4,152.1L391.7,149.2L394.4,141.7L394.7,139.2L391.7,136.6L390.1,129.1L386.1,129.1L384.8,129.9L380.2,130.0L379.2,130.8L376.0,135.9L373.8,137.2L372.2,140.4L369.8,141.2L366.7,139.9L363.8,136.5L362.1,136.8L357.8,140.4L356.5,144.8L360.6,148.0L357.1,150.0L355.1,152.5L354.7,155.7L352.0,157.6L347.2,157.7L343.1,157.2L341.6,162.7L343.1,168.0L344.7,170.0L346.2,177.0L348.0,179.7L349.6,184.9L350.8,186.3L355.9,181.7L357.7,181.1L360.2,176.5L361.4,179.9L374.0,177.0L377.1,177.3L376.8,174.6L382.0,175.1L384.4,177.4L389.5,179.9L392.6,182.8L399.2,182.1L402.6,183.8L406.3,179.4L408.6,174.5L411.6,174.0Z"/><path d="M521.3,177.8L517.7,173.5L515.6,172.0L513.9,168.9L510.8,166.4L505.6,164.9L501.9,162.9L498.4,163.0L496.3,160.0L492.6,160.3L488.9,156.2L487.0,155.8L483.6,155.9L480.9,154.6L479.9,159.3L477.7,164.0L474.3,163.6L473.4,162.7L468.5,161.5L466.8,159.4L462.8,161.2L458.9,160.3L460.1,163.5L460.4,166.7L461.8,172.5L461.8,174.7L464.9,179.1L463.8,185.0L468.0,188.2L474.0,198.1L476.0,198.6L476.2,200.9L479.2,203.6L480.1,206.1L482.8,207.6L484.3,212.4L485.2,212.9L488.2,210.9L491.4,207.2L495.4,205.1L498.6,204.9L501.3,206.0L503.6,205.4L506.2,206.0L508.8,203.0L512.5,202.3L514.7,200.9L515.1,198.4L513.9,196.9L514.4,193.8L517.7,186.5L522.0,185.9L521.5,183.1L519.4,180.2L521.3,177.8Z"/><path d="M212.3,464.4L214.6,470.4L213.8,472.2L214.3,474.7L218.0,476.4L221.0,486.3L220.2,489.1L220.6,492.2L219.9,495.4L221.6,498.2L226.4,500.9L228.5,498.7L232.2,500.7L231.6,496.0L233.9,495.6L233.1,492.5L231.0,488.9L233.3,487.3L240.9,484.7L238.6,482.5L238.0,479.7L233.4,475.7L233.5,474.0L231.5,470.6L229.9,466.4L221.8,465.0L221.0,462.8L215.4,464.8L212.3,464.4Z"/><path d="M270.5,67.0L271.3,70.5L271.1,73.6L269.7,81.8L272.8,86.3L275.6,85.6L276.5,86.5L276.5,89.9L277.5,90.9L279.8,87.9L283.0,86.5L287.6,82.7L290.6,83.5L294.1,82.4L296.2,82.7L300.6,79.9L302.9,79.5L309.2,80.3L311.1,77.7L313.1,71.6L314.3,69.7L319.7,67.0L319.4,64.7L320.5,61.6L322.3,59.3L324.0,55.1L326.1,51.8L329.9,49.5L332.7,49.7L330.9,48.2L328.9,48.9L326.9,47.3L324.0,49.7L321.9,49.6L321.1,48.0L317.2,47.1L311.4,48.1L310.5,50.6L307.1,55.0L304.0,55.8L299.0,59.8L296.7,59.5L295.5,56.2L292.4,57.6L290.3,55.9L287.3,56.2L286.6,54.0L284.0,55.3L280.7,52.1L274.0,51.5L271.7,52.7L265.9,53.9L266.7,57.6L269.5,62.3L270.5,67.0Z"/><path d="M198.5,385.9L199.7,385.9L200.7,390.1L199.5,392.4L201.3,397.9L207.9,403.4L208.7,408.0L212.8,412.1L214.6,413.1L215.6,410.3L219.0,408.3L226.2,409.1L225.3,398.7L227.1,394.9L235.2,391.7L241.6,387.7L243.6,388.9L246.0,388.0L246.8,384.9L250.7,384.0L249.2,383.1L244.5,377.4L239.7,374.5L236.1,375.8L232.9,374.7L230.1,372.2L225.9,373.0L224.0,371.0L223.5,369.0L219.8,369.1L217.0,367.3L216.4,361.0L214.8,357.4L220.4,354.0L222.2,351.0L221.6,349.1L218.9,349.3L215.7,346.5L211.6,344.0L207.0,343.4L202.0,341.1L200.7,342.8L196.7,336.7L194.3,334.5L192.6,335.3L189.3,334.1L186.0,336.3L187.6,340.1L187.0,345.0L190.0,345.0L185.8,345.8L183.6,346.9L183.2,350.8L181.2,350.3L179.2,351.5L177.1,351.0L179.8,356.6L181.0,358.1L179.8,361.2L181.9,362.9L184.8,365.6L186.9,365.4L191.1,369.2L194.0,368.6L196.3,369.3L198.7,367.1L202.0,366.7L203.5,368.0L206.3,367.7L203.6,371.5L202.1,374.9L202.3,376.2L199.9,378.7L199.0,381.6L199.7,383.2L198.5,385.9Z"/><path d="M60.4,282.6L61.4,285.8L58.2,289.9L59.6,294.1L58.3,296.9L59.4,300.6L59.1,303.4L54.6,307.5L56.3,309.1L59.0,309.8L58.6,312.2L56.5,314.1L54.2,319.3L53.7,321.7L51.9,323.6L51.8,327.3L55.0,329.7L53.1,332.1L54.0,334.1L57.1,336.3L53.2,339.5L53.3,341.3L55.4,342.4L53.9,346.0L52.0,348.0L54.9,349.7L52.8,351.4L53.5,353.4L51.0,359.6L48.9,360.8L50.1,362.8L49.8,365.0L53.2,364.5L54.0,367.1L58.4,368.0L60.4,367.1L62.3,369.2L64.0,367.5L66.1,368.5L69.9,364.8L71.7,366.1L75.1,366.4L76.9,368.8L77.3,371.0L81.5,371.0L85.0,367.9L85.6,364.3L87.4,363.5L88.2,360.4L90.8,356.3L93.3,355.9L95.6,353.6L99.1,354.3L101.0,351.5L103.2,350.5L103.2,347.0L105.5,343.6L104.9,341.3L109.9,334.8L113.2,333.8L115.2,331.7L118.9,332.5L120.3,329.2L120.6,327.3L126.0,320.2L130.3,319.1L128.4,315.9L129.2,312.1L128.6,310.4L130.3,308.0L129.7,303.6L127.4,298.0L125.5,295.3L126.4,292.5L125.0,290.3L125.4,285.9L124.1,282.2L125.4,279.0L124.5,277.0L126.4,272.3L124.9,270.3L124.6,267.7L123.2,264.6L124.8,261.4L124.6,257.2L122.4,253.8L121.2,250.8L121.4,248.9L120.0,245.4L116.9,245.3L115.6,240.1L119.5,239.5L119.6,237.5L118.2,235.3L118.3,231.7L114.8,235.3L112.8,235.8L110.5,234.8L107.4,235.3L104.2,232.6L102.4,232.8L99.5,230.7L98.0,228.6L95.6,230.3L95.6,235.1L93.5,236.2L94.2,237.9L88.4,241.6L87.8,245.3L85.4,249.4L84.6,249.5L83.6,254.7L86.0,256.0L80.0,260.2L75.6,260.5L73.3,263.3L72.9,266.3L71.3,267.8L68.5,267.7L67.1,269.5L66.3,272.7L63.1,273.4L60.8,275.0L61.3,277.8L60.0,279.6L60.4,282.6Z"/><path d="M304.1,249.0L303.5,254.4L304.6,258.3L302.7,263.8L303.3,266.4L304.8,267.5L306.0,270.9L310.4,272.7L312.2,275.5L315.0,276.8L316.2,281.7L318.6,284.0L322.1,284.2L326.1,286.4L326.5,290.1L329.7,292.4L332.5,292.8L334.1,294.9L334.8,297.6L337.6,300.1L337.6,303.1L340.0,307.8L340.7,311.2L342.1,313.1L342.1,316.9L340.7,320.6L342.4,321.4L342.9,326.0L341.9,328.1L342.6,329.3L344.0,330.5L346.6,330.5L354.1,326.8L356.5,327.2L362.0,329.8L365.5,328.8L367.8,329.5L369.4,327.9L371.1,329.6L373.9,328.3L379.6,330.7L381.6,331.1L383.5,332.3L381.5,322.6L380.2,321.1L379.2,317.8L379.8,316.2L376.9,312.2L374.4,303.6L374.1,298.0L370.9,293.9L370.6,292.1L365.3,286.3L363.7,283.8L366.1,279.1L367.4,278.6L371.6,274.5L372.2,269.6L371.4,267.5L372.4,264.8L374.8,265.0L377.7,264.4L380.8,262.5L384.5,262.2L390.2,259.5L395.5,254.4L394.1,252.8L392.1,248.2L389.9,247.6L385.2,241.7L378.8,237.2L376.7,233.0L377.1,230.4L376.1,228.0L373.2,225.6L371.3,220.0L366.0,215.8L361.4,207.9L358.9,207.1L357.5,203.0L354.9,200.4L352.9,201.4L343.2,199.4L340.6,196.7L340.1,195.0L335.8,192.9L331.0,188.4L330.2,185.9L328.4,183.7L325.7,182.2L322.9,194.5L317.3,196.0L319.0,205.9L321.9,209.6L323.4,214.9L319.7,215.7L318.0,219.3L312.9,220.8L309.8,224.2L311.9,226.4L312.4,229.1L315.9,232.8L317.6,236.0L317.2,237.5L319.6,239.4L324.0,241.8L316.4,244.2L313.2,246.1L309.0,246.9L304.1,249.0Z"/><path d="M274.6,353.1L278.0,353.1L281.0,352.2L283.2,353.8L284.8,350.9L287.8,351.6L292.3,354.8L297.7,353.8L301.0,355.3L304.0,353.1L308.1,354.7L310.0,352.3L314.8,351.2L318.2,352.2L322.3,351.3L323.3,350.2L319.5,347.8L319.0,345.4L316.0,343.1L310.4,340.3L309.2,340.9L302.3,338.4L301.5,336.3L298.7,335.6L294.1,331.1L292.8,328.4L294.0,327.1L294.2,324.1L290.9,325.8L287.3,329.9L284.0,327.6L283.4,325.8L278.8,322.9L276.4,322.1L273.1,326.1L270.7,324.1L270.4,322.2L271.9,320.4L269.2,317.8L270.5,316.4L269.7,312.5L265.1,314.1L264.1,311.9L261.9,311.3L260.6,312.4L256.9,311.3L248.8,321.8L248.4,327.4L247.8,329.0L248.0,330.7L250.5,331.6L250.6,334.4L252.4,335.1L253.8,338.4L256.7,341.3L260.0,342.8L261.1,346.5L263.1,346.1L265.5,351.6L267.5,349.9L270.5,349.3L269.7,352.5L272.2,354.5L274.6,353.1Z"/><path d="M233.6,181.6L238.1,186.9L239.9,188.2L244.0,189.4L247.2,188.3L246.6,191.9L247.9,194.2L252.3,193.3L254.1,194.0L256.2,192.9L256.9,190.9L260.5,190.7L262.3,182.7L262.1,179.1L263.4,176.9L269.0,166.0L266.5,163.4L267.0,160.7L262.7,158.7L258.3,157.7L255.5,161.2L250.1,161.2L248.4,164.5L248.5,165.8L245.9,169.5L242.9,168.3L242.2,170.8L238.8,173.2L236.1,174.2L234.6,179.8L233.6,181.6Z"/><path d="M278.2,123.8L275.5,121.0L274.9,117.8L268.0,115.1L265.5,109.1L265.9,108.1L260.0,103.4L257.1,105.1L254.1,104.3L250.5,100.9L248.6,97.6L246.0,95.5L246.7,93.7L243.6,92.9L242.4,90.6L239.0,89.6L235.5,90.0L234.1,89.4L230.9,91.4L229.3,90.7L223.0,114.6L220.2,144.4L218.6,160.0L221.8,163.0L228.4,161.7L229.3,162.8L233.0,162.4L236.1,164.7L238.3,167.7L240.5,169.0L242.9,168.3L245.9,169.5L248.5,165.8L248.4,164.5L250.1,161.2L255.5,161.2L258.3,157.7L262.7,158.7L263.9,156.7L265.9,155.8L268.3,151.3L268.1,149.6L270.3,146.2L279.2,141.1L284.0,143.0L287.5,142.5L289.2,141.0L286.4,137.3L281.7,133.4L281.2,128.9L278.9,127.7L278.2,123.8Z"/><path d="M267.5,199.6L264.2,201.4L261.9,204.4L260.5,204.6L259.7,209.0L257.5,210.4L256.9,214.2L254.4,218.4L253.9,220.8L251.6,222.3L250.0,224.7L247.8,224.7L246.9,226.9L252.4,227.7L255.5,230.6L258.9,230.1L259.2,228.1L264.3,228.1L265.5,219.0L267.1,219.1L269.1,216.9L273.2,215.9L278.0,217.3L281.6,217.2L282.8,215.9L289.2,218.1L290.2,215.6L286.5,214.4L285.8,211.7L285.8,207.9L283.8,206.4L277.6,206.4L274.1,206.9L273.0,199.8L267.5,199.6Z"/><path d="M383.5,332.3L387.5,334.6L391.1,334.1L395.4,334.8L401.0,339.0L403.8,340.0L408.1,337.7L413.6,338.1L417.3,336.4L423.6,335.1L429.4,332.2L431.0,333.2L433.0,332.3L437.0,334.9L438.2,336.9L439.4,342.2L443.2,340.4L446.4,335.5L446.8,333.1L445.5,329.8L443.3,327.8L439.2,328.5L438.7,327.3L435.2,325.5L435.2,324.3L431.4,321.6L426.9,319.5L424.5,316.3L419.7,313.8L418.0,312.1L415.2,307.1L413.1,304.5L412.3,301.7L410.8,300.8L409.2,297.9L404.8,294.5L402.6,291.9L392.8,283.7L387.9,280.7L385.9,278.1L383.7,277.3L381.9,273.9L382.0,271.7L380.6,268.3L374.8,265.0L372.4,264.8L371.4,267.5L372.2,269.6L371.6,274.5L367.4,278.6L366.1,279.1L363.7,283.8L365.3,286.3L370.6,292.1L370.9,293.9L374.1,298.0L374.4,303.6L376.9,312.2L379.8,316.2L379.2,317.8L380.2,321.1L381.5,322.6L383.5,332.3Z"/><path d="M278.2,123.8L278.9,127.7L281.2,128.9L281.7,133.4L286.4,137.3L289.2,141.0L287.5,142.5L284.0,143.0L279.2,141.1L270.3,146.2L268.1,149.6L268.3,151.3L265.9,155.8L263.9,156.7L262.7,158.7L267.0,160.7L266.5,163.4L269.0,166.0L263.4,176.9L266.9,180.0L268.2,187.1L271.3,187.0L274.6,184.4L277.2,184.7L279.7,182.3L285.2,182.9L287.7,183.9L287.8,178.4L289.7,177.9L291.9,173.9L295.3,173.7L295.3,167.5L298.0,165.7L300.7,162.3L302.1,162.5L302.6,156.5L302.1,153.4L300.0,149.3L304.1,146.0L302.3,136.1L299.2,132.6L299.1,129.5L296.6,125.8L294.2,124.5L290.3,123.3L286.8,125.1L281.0,124.8L278.2,123.8Z"/><path d="M232.2,500.7L234.4,502.3L241.1,500.2L242.6,498.8L245.6,500.8L249.8,498.3L254.7,498.4L254.6,495.9L259.1,494.5L263.5,491.9L269.4,491.7L270.8,489.2L269.1,482.5L265.2,485.1L257.7,489.5L254.7,490.2L249.9,492.5L246.6,490.0L245.0,489.7L240.9,484.7L233.3,487.3L231.0,488.9L233.1,492.5L233.9,495.6L231.6,496.0L232.2,500.7Z"/><path d="M442.1,225.1L444.2,228.8L443.7,233.8L445.4,239.0L445.6,241.6L449.8,246.5L449.3,248.4L455.1,252.8L457.1,250.0L458.6,250.1L461.3,247.4L464.2,247.8L466.8,246.9L468.7,248.3L470.2,250.8L471.8,250.9L475.2,255.3L475.8,257.1L479.0,259.9L483.5,256.3L486.9,250.3L488.9,249.0L494.0,241.2L492.7,238.6L489.1,236.6L487.0,234.3L483.4,233.0L479.4,229.3L474.9,223.1L471.0,219.1L467.0,218.1L464.8,210.5L460.3,216.2L457.1,217.5L451.9,217.3L447.9,218.8L446.7,220.6L443.8,221.9L442.1,225.1Z"/><path d="M262.0,268.7L261.5,271.3L258.2,271.5L256.7,270.5L254.6,271.7L252.6,270.7L245.3,268.7L244.2,263.6L241.9,260.2L237.9,258.9L236.0,257.5L236.3,259.3L234.9,265.0L236.1,267.3L237.9,268.2L239.6,273.0L238.7,277.2L236.2,279.7L235.8,289.7L232.7,288.3L231.7,287.8L229.2,292.9L229.2,296.7L227.9,299.2L228.4,304.4L229.7,305.1L230.9,309.8L229.9,311.9L232.5,316.4L235.6,318.7L238.5,320.1L238.1,321.4L241.3,323.3L242.7,326.6L245.8,327.4L247.8,329.0L248.4,327.4L248.8,321.8L256.9,311.3L260.6,312.4L261.9,311.3L264.1,311.9L265.1,314.1L269.7,312.5L271.0,311.8L271.6,308.9L273.5,308.8L278.2,304.2L281.1,302.4L281.5,300.7L279.2,297.7L281.5,296.3L284.3,295.9L282.5,287.8L282.6,286.7L281.4,284.7L278.7,283.6L276.3,280.4L274.4,280.7L271.5,279.1L269.9,276.3L269.2,272.5L269.9,270.7L268.3,266.8L265.1,265.3L262.0,268.7Z"/><path d="M337.9,19.8L336.2,17.9L332.3,19.3L330.8,22.2L328.5,22.7L327.8,27.0L325.3,28.0L321.1,33.0L318.3,35.3L315.0,35.7L312.6,38.3L313.0,41.8L310.8,45.8L307.6,45.8L303.7,44.9L296.3,48.9L293.6,48.5L290.6,46.8L291.3,45.0L290.3,42.4L288.1,40.0L285.2,39.3L284.8,37.2L283.0,36.0L278.4,35.4L274.0,37.0L266.6,38.8L265.8,42.0L263.0,43.3L261.4,45.2L259.0,46.2L253.5,45.1L246.6,47.3L244.8,46.8L240.6,48.0L239.2,54.7L240.8,55.7L240.7,58.7L244.9,63.9L247.8,65.2L250.3,64.6L253.6,67.0L254.1,69.2L258.0,72.7L260.5,73.2L266.2,71.1L267.1,68.7L270.5,67.0L269.5,62.3L266.7,57.6L265.9,53.9L271.7,52.7L274.0,51.5L280.7,52.1L284.0,55.3L286.6,54.0L287.3,56.2L290.3,55.9L292.4,57.6L295.5,56.2L296.7,59.5L299.0,59.8L304.0,55.8L307.1,55.0L310.5,50.6L311.4,48.1L317.2,47.1L321.1,48.0L321.9,49.6L324.0,49.7L326.9,47.3L328.9,48.9L330.9,48.2L332.7,49.7L336.3,48.8L337.9,19.8Z"/><path d="M240.9,484.7L245.0,489.7L246.6,490.0L249.9,492.5L254.7,490.2L257.7,489.5L265.2,485.1L269.1,482.5L273.2,481.2L271.4,476.1L266.5,471.3L262.2,468.9L258.9,469.1L255.0,470.4L251.7,468.6L248.4,465.5L243.8,463.5L240.0,459.2L239.3,457.1L236.1,458.5L231.5,470.6L233.5,474.0L233.4,475.7L238.0,479.7L238.6,482.5L240.9,484.7Z"/><path d="M359.5,382.4L349.9,400.3L348.2,402.3L349.0,403.7L346.0,406.2L347.6,410.0L347.6,411.6L349.5,413.0L348.2,415.1L345.9,416.4L345.3,418.2L342.5,419.8L341.8,422.9L339.8,424.2L339.4,428.6L341.0,430.1L342.8,426.4L345.2,424.8L346.8,422.1L350.9,420.2L355.9,416.6L357.9,415.9L361.5,413.1L361.1,410.7L363.6,410.2L364.9,407.4L364.5,399.5L362.7,396.9L362.3,394.2L361.0,391.1L360.7,384.3L359.5,382.4Z"/><path d="M236.0,257.5L237.9,258.9L241.9,260.2L244.2,263.6L245.3,268.7L252.6,270.7L254.6,271.7L256.7,270.5L258.2,271.5L261.5,271.3L262.0,268.7L260.2,264.9L263.3,263.0L265.3,259.7L263.2,255.6L263.2,252.2L265.5,250.1L265.5,239.0L261.7,237.1L261.7,236.1L257.1,234.9L254.9,232.3L255.5,230.6L252.4,227.7L246.9,226.9L244.1,226.8L240.6,226.1L236.9,228.1L233.3,231.9L231.7,233.5L231.6,236.3L233.3,238.7L228.4,239.2L225.9,240.6L226.0,243.3L223.8,245.0L225.2,247.3L228.0,244.7L231.5,247.9L231.5,249.5L236.0,257.5Z"/><path d="M465.3,290.8L466.2,288.7L469.2,285.1L472.4,285.1L475.2,283.2L475.8,279.0L474.6,274.5L475.4,271.2L474.5,269.7L476.6,263.0L478.5,260.2L479.0,259.9L475.8,257.1L475.2,255.3L471.8,250.9L470.2,250.8L468.7,248.3L466.8,246.9L464.2,247.8L461.3,247.4L458.6,250.1L457.1,250.0L455.1,252.8L449.3,248.4L449.8,246.5L445.6,241.6L445.4,239.0L443.7,233.8L444.2,228.8L442.1,225.1L440.4,223.6L439.0,220.0L437.0,217.1L435.6,213.4L435.9,206.4L430.3,200.3L429.8,197.9L427.7,196.4L427.3,192.7L424.1,189.6L418.3,188.0L413.2,190.1L410.8,193.9L410.2,197.8L409.2,200.8L407.0,201.8L402.5,202.3L397.9,206.5L400.5,207.5L401.6,209.6L402.2,217.5L403.4,221.6L401.3,223.1L401.6,226.8L403.2,229.8L401.0,233.8L401.8,236.6L404.9,242.1L408.4,244.9L409.2,246.6L412.3,249.5L414.9,253.9L416.6,255.0L417.3,257.3L419.2,259.4L422.8,268.2L426.1,273.0L425.8,278.9L429.5,283.8L433.4,285.8L435.3,285.2L439.5,288.2L443.0,289.9L447.5,293.2L450.7,296.3L450.5,297.6L453.9,300.4L457.3,300.2L458.1,301.3L458.2,297.7L459.1,296.5L461.9,296.2L464.2,294.4L465.3,290.8Z"/><path d="M294.8,386.5L287.5,383.6L285.1,384.3L282.4,390.9L285.0,394.9L285.0,400.7L286.2,402.9L287.8,403.2L293.3,390.2L294.8,386.5Z"/></g><path d="M356.3,72.5L350.8,75.9L342.4,71.4L331.6,73.1L319.7,67.0L326.1,51.8L332.7,49.7L336.3,48.8L337.9,19.8L328.5,22.7L318.3,35.3L315.0,35.7L311.4,45.6L303.7,44.9L296.3,48.9L283.0,36.0L266.6,38.8L259.0,46.2L240.6,48.0L240.4,47.9L229.7,40.3L215.9,36.3L209.4,27.8L183.8,20.1L180.0,13.8L166.1,17.3L153.4,25.2L134.6,23.6L124.4,39.7L117.3,43.0L116.9,48.7L108.1,57.4L90.7,60.7L86.2,64.2L75.9,59.1L70.3,52.7L69.8,46.4L65.8,41.9L63.8,47.1L68.6,53.7L67.9,60.8L77.7,82.4L85.7,89.7L78.8,90.2L64.8,137.2L68.7,146.9L63.8,146.9L40.5,198.6L58.7,213.8L38.0,227.6L42.8,233.9L44.4,243.5L49.5,247.4L48.4,259.2L52.1,266.1L58.3,269.0L52.0,272.7L58.7,274.7L54.0,279.7L60.4,282.6L58.2,289.9L59.0,309.8L51.8,327.3L57.0,336.0L51.3,347.4L54.9,349.7L49.6,364.9L66.1,368.5L75.3,365.3L81.5,371.0L94.7,376.1L112.7,375.1L126.5,380.0L144.9,373.3L149.3,365.5L156.6,363.9L159.8,371.5L168.9,378.4L193.4,379.0L198.5,385.9L201.3,397.9L208.7,408.0L205.2,419.4L209.8,440.8L213.7,447.1L216.0,456.9L212.3,464.4L214.3,474.7L220.6,481.1L219.9,495.4L222.8,499.4L232.2,500.7L245.6,500.8L270.8,489.2L288.0,496.4L297.4,506.2L305.2,501.2L310.9,491.7L310.9,487.4L313.1,479.0L314.4,474.7L319.2,461.5L332.4,455.5L335.6,450.1L340.8,438.8L341.0,430.1L346.8,422.1L355.9,416.6L361.5,413.1L367.3,410.9L374.8,405.1L376.3,402.9L378.4,397.7L386.8,392.3L406.4,380.2L419.7,371.7L423.9,366.7L428.8,356.5L439.4,342.2L446.4,335.5L443.3,327.8L452.7,322.4L459.4,311.2L458.1,301.3L465.3,290.8L475.2,283.2L474.5,269.7L478.5,260.2L479.0,259.9L488.9,249.0L494.0,241.2L509.7,235.8L516.9,222.6L516.9,221.8L514.7,200.9L514.4,193.8L521.5,186.5L521.3,177.8L510.8,166.4L487.0,155.8L480.9,154.6L470.7,152.8L460.0,148.1L454.1,142.1L444.8,140.9L437.9,133.6L427.8,132.2L422.6,126.1L416.6,121.3L400.2,122.4L391.8,119.1L388.6,116.8L385.7,112.3L394.1,103.3L399.4,98.9L395.3,95.2L376.6,95.4L373.8,79.0L378.5,75.4L367.4,73.5L356.3,72.5Z" fill="none" stroke="#16304F" stroke-width="1.1"/></svg>